<?xml version="1.0" encoding="utf-8"?>
<!-- Generator: Adobe Illustrator 19.2.1, SVG Export Plug-In . SVG Version: 6.00 Build 0)  -->
<svg version="1.1" id="Layer_1" xmlns="http://www.w3.org/2000/svg" xmlns:xlink="http://www.w3.org/1999/xlink" x="0px" y="0px"
	 viewBox="0 0 20 20" style="enable-background:new 0 0 20 20;" xml:space="preserve">
<style type="text/css">
	.st0{fill:#FAB400;}
</style>
<path class="st0" d="M19.1,6.8l-5.5-0.5c-0.3,0-0.6-0.3-0.8-0.6l-2-4.8c-0.2-0.4-0.5-0.6-0.9-0.6l0,0C9.7,0.4,9.3,0.6,9.2,1L7.2,5.7
	C7.1,6.1,6.8,6.3,6.5,6.3L1,6.8C0.2,6.9-0.2,7.9,0.4,8.5l4.1,3.6c0.3,0.2,0.4,0.6,0.3,0.9l-1.2,5.1c-0.1,0.6,0.3,1.2,0.9,1.2
	c0.2,0,0.3,0,0.5-0.1l4.6-2.7c0.1-0.1,0.3-0.1,0.5-0.1c0.2,0,0.3,0,0.5,0.1l4.6,2.7c0.2,0.1,0.3,0.1,0.5,0.1c0.6,0,1.1-0.5,0.9-1.2
	L15.3,13c-0.1-0.3,0-0.7,0.3-0.9l4.1-3.6C20.3,7.9,20,6.9,19.1,6.8z M14.9,11.4c-0.5,0.5-0.8,1.2-0.6,1.9l1.2,5L11,15.6
	c-0.3-0.2-0.6-0.3-1-0.3s-0.7,0.1-1,0.3l-4.5,2.6l1.2-5c0.2-0.7-0.1-1.4-0.6-1.9l-4-3.5l5.4-0.5c0.7-0.1,1.4-0.5,1.6-1.2L10,1.5l0,0
	L12,6.1c0.3,0.7,0.9,1.1,1.6,1.2L19,7.8L14.9,11.4z"/>
</svg>
