<?xml version="1.0" encoding="utf-8"?>
<!-- Generator: Adobe Illustrator 19.2.1, SVG Export Plug-In . SVG Version: 6.00 Build 0)  -->
<svg version="1.1" id="Layer_1" xmlns="http://www.w3.org/2000/svg" xmlns:xlink="http://www.w3.org/1999/xlink" x="0px" y="0px"
	 viewBox="0 0 20 20" style="enable-background:new 0 0 20 20;" xml:space="preserve">
<style type="text/css">
	.st0{fill:#FAB400;}
</style>
<path class="st0" d="M19.6,8.5c0.6-0.5,0.2-1.6-0.6-1.6h0l-5.4-0.5c-0.3,0-0.6-0.3-0.8-0.6L10.9,1c-0.3-0.8-1.4-0.8-1.7,0L7.3,5.7
	C7.1,6.1,6.8,6.3,6.5,6.3L1.1,6.8C0.3,6.9-0.1,7.9,0.5,8.5l4.1,3.6C4.9,12.3,5,12.7,4.9,13l-1.2,5.1c-0.2,0.8,0.7,1.5,1.4,1l4.5-2.7
	c0.3-0.2,0.7-0.2,0.9,0l4.5,2.7c0.7,0.4,1.6-0.2,1.4-1L15.2,13c-0.1-0.3,0-0.7,0.3-0.9L19.6,8.5z"/>
</svg>
