<?xml version="1.0" encoding="utf-8"?>
<!-- Generator: Adobe Illustrator 19.2.1, SVG Export Plug-In . SVG Version: 6.00 Build 0)  -->
<svg version="1.1"
	 id="Layer_1" xmlns:cc="http://creativecommons.org/ns#" xmlns:dc="http://purl.org/dc/elements/1.1/" xmlns:inkscape="http://www.inkscape.org/namespaces/inkscape" xmlns:rdf="http://www.w3.org/1999/02/22-rdf-syntax-ns#" xmlns:sodipodi="http://sodipodi.sourceforge.net/DTD/sodipodi-0.dtd" xmlns:svg="http://www.w3.org/2000/svg"
	 xmlns="http://www.w3.org/2000/svg" xmlns:xlink="http://www.w3.org/1999/xlink" x="0px" y="0px" viewBox="0 0 200 200"
	 style="enable-background:new 0 0 200 200;" xml:space="preserve">
<g transform="translate(0,-952.36218)">
	<path d="M51.3,962.6c2.7,3.8,5.4,6.6,6.8,8.9c2.9,7.1-2.5,11.7-5.5,17.1c-2,3.5-3,8-1.8,14.8c0.2,1.6,2,2.9,3.4,2.6
		c1.6-0.4,2.7-2,2.3-3.6c-1.1-5.8-0.2-8.4,1.2-10.9c4.5-6.7,10-14.4,5.4-23.2c-2-3.5-4.6-6.4-7-9.7c-0.5-0.9-1.6-1.5-2.7-1.3
		C50.4,957.7,50.4,960.8,51.3,962.6L51.3,962.6z M74.8,962.6c2.7,3.8,5.4,6.6,6.8,8.9c2.9,7.1-2.5,11.7-5.5,17.1
		c-2,3.5-3,8-1.8,14.8c0.2,1.6,2,2.9,3.4,2.6c1.6-0.4,2.7-2,2.3-3.6c-1.1-5.8-0.2-8.4,1.2-10.9c4.5-6.7,10-14.4,5.4-23.2
		c-2-3.5-4.6-6.4-7-9.7c-0.5-0.9-1.6-1.5-2.7-1.3C74.1,957.7,74.1,960.8,74.8,962.6L74.8,962.6z M98.5,962.6
		c2.7,3.8,5.4,6.6,6.8,8.9c2.9,7.1-2.5,11.7-5.5,17.1c-2,3.5-3,8-1.8,14.8c0.2,1.6,2,2.9,3.4,2.6c1.6-0.4,2.7-2,2.3-3.6
		c-1.1-5.8-0.2-8.4,1.2-10.9c4.5-6.7,10-14.4,5.4-23.2c-2-3.5-4.6-6.4-7-9.7c-0.5-0.9-1.6-1.5-2.7-1.3
		C97.8,957.7,97.8,960.8,98.5,962.6L98.5,962.6z M7,1018.2c-3.9,0-5.2,2.7-5.5,6.2c0,54.7,9.3,86.3,42.3,120
		c0.5,0.5,1.2,0.9,2.1,0.9l71.2-0.2c0.7,0,1.6-0.4,2.1-0.9c8.7-8.9,15.9-17.9,21.6-27v0.7c11.2,0,25.7-5.3,37.8-15.5
		c11.9-10.2,21.4-25.4,21.4-45.1c-0.9-10-8.6-15-16.9-16.8c-7.7-1.3-15-1.3-21.9,0.9c0.2-5.5,0.4-11.1,0.4-17.1
		c0.4-2.6-1.1-4-2.3-5.7C107.1,1018.4,53.9,1018.2,7,1018.2L7,1018.2z M155.4,1024.4c0,53.4-8.4,82.4-39.8,114.7l-68.3,0.2
		c-31.4-32.5-39.9-61.3-39.9-114.9C58.2,1024.4,110.5,1024.4,155.4,1024.4L155.4,1024.4z M181.8,1046.9c5.9,1.5,12.1,4.9,12.1,10.9
		c0,17.7-8.4,31.2-19.3,40.3c-9.8,8.2-21.8,12.9-30.9,13.9c10.2-18.4,15-38.5,16.8-63.8C167.9,1046,174.9,1045.4,181.8,1046.9z"/>
</g>
</svg>
