<?xml version="1.0" encoding="utf-8"?>
<!-- Generator: Adobe Illustrator 19.2.1, SVG Export Plug-In . SVG Version: 6.00 Build 0)  -->
<svg version="1.1"
	 id="Layer_1" xmlns:cc="http://creativecommons.org/ns#" xmlns:dc="http://purl.org/dc/elements/1.1/" xmlns:inkscape="http://www.inkscape.org/namespaces/inkscape" xmlns:rdf="http://www.w3.org/1999/02/22-rdf-syntax-ns#" xmlns:sodipodi="http://sodipodi.sourceforge.net/DTD/sodipodi-0.dtd" xmlns:svg="http://www.w3.org/2000/svg"
	 xmlns="http://www.w3.org/2000/svg" xmlns:xlink="http://www.w3.org/1999/xlink" x="0px" y="0px" viewBox="0 0 60 60"
	 style="enable-background:new 0 0 60 60;" xml:space="preserve">
<g transform="translate(0,-952.36218)">
	<path d="M18.2,961.3c0.7,0.9,1.4,1.5,1.8,2.1c0.8,1.6-0.6,2.7-1.4,4c-0.5,0.8-0.8,1.8-0.5,3.4c0.1,0.4,0.5,0.7,0.9,0.6
		c0.4-0.1,0.7-0.5,0.6-0.8c-0.3-1.4,0-1.9,0.3-2.5c1.1-1.6,2.6-3.3,1.4-5.3c-0.5-0.8-1.2-1.5-1.8-2.2c-0.1-0.2-0.4-0.3-0.7-0.3
		C18,960.2,18,960.9,18.2,961.3L18.2,961.3z M24.4,961.3c0.7,0.9,1.4,1.5,1.8,2.1c0.8,1.6-0.6,2.7-1.4,4c-0.5,0.8-0.8,1.8-0.5,3.4
		c0.1,0.4,0.5,0.7,0.9,0.6c0.4-0.1,0.7-0.5,0.6-0.8c-0.3-1.4,0-1.9,0.3-2.5c1.1-1.6,2.6-3.3,1.4-5.3c-0.5-0.8-1.2-1.5-1.8-2.2
		c-0.1-0.2-0.4-0.3-0.7-0.3C24.2,960.2,24.2,960.9,24.4,961.3L24.4,961.3z M30.6,961.3c0.7,0.9,1.4,1.5,1.8,2.1
		c0.8,1.6-0.6,2.7-1.4,4c-0.5,0.8-0.8,1.8-0.5,3.4c0.1,0.4,0.5,0.7,0.9,0.6c0.4-0.1,0.7-0.5,0.6-0.8c-0.3-1.4,0-1.9,0.3-2.5
		c1.1-1.6,2.6-3.3,1.4-5.3c-0.5-0.8-1.2-1.5-1.8-2.2c-0.1-0.2-0.4-0.3-0.7-0.3C30.3,960.2,30.3,960.9,30.6,961.3L30.6,961.3z
		 M6.7,974.1c-1,0-1.4,0.6-1.4,1.4c0,12.6,2.4,19.9,11,27.6c0.1,0.1,0.3,0.2,0.6,0.2l18.5,0c0.2,0,0.4-0.1,0.6-0.2
		c2.3-2.1,4.1-4.1,5.6-6.2v0.2c3,0,6.7-1.2,9.9-3.6c3.1-2.3,5.6-5.9,5.6-10.4c-0.3-2.3-2.3-3.4-4.4-3.9c-2-0.3-3.9-0.3-5.7,0.2
		c0.1-1.3,0.1-2.6,0.1-4c0.1-0.6-0.3-0.9-0.6-1.3C32.8,974.2,18.9,974.1,6.7,974.1L6.7,974.1z M45.4,975.6c0,12.3-2.2,19-10.4,26.4
		l-17.8,0C9,994.5,6.8,987.9,6.8,975.6C20,975.6,33.7,975.5,45.4,975.6L45.4,975.6z M52.3,980.7c1.5,0.3,3.2,1.1,3.2,2.5
		c0,4.1-2.2,7.2-5,9.3c-2.5,1.9-5.7,3-8,3.2c2.7-4.2,3.9-8.8,4.4-14.7C48.6,980.5,50.5,980.4,52.3,980.7z"/>
</g>
</svg>
