<svg width="67" height="27" viewBox="0 0 67 27" version="1.1" xmlns="http://www.w3.org/2000/svg" xmlns:xlink="http://www.w3.org/1999/xlink" xmlns:figma="http://www.figma.com/figma/ns">
<title>logo_v2-Final</title>
<desc>Created using Figma</desc>
<g id="Canvas" transform="translate(-2819 -7333)" figma:type="canvas">
<g id="logo_v2-Final" style="mix-blend-mode:normal;" figma:type="frame">
<g id="Group" style="mix-blend-mode:normal;" figma:type="frame">
<g id="Vector" style="mix-blend-mode:normal;" figma:type="vector">
<use xlink:href="#path0_fill" transform="translate(2866.61 7347.07)" fill="#FFC107" style="mix-blend-mode:normal;"/>
</g>
<g id="Vector" style="mix-blend-mode:normal;" figma:type="vector">
<use xlink:href="#path1_fill" transform="translate(2876.57 7347.08)" fill="#FFC107" style="mix-blend-mode:normal;"/>
</g>
</g>
<g id="Group" style="mix-blend-mode:normal;" figma:type="frame">
<g id="Vector" style="mix-blend-mode:normal;" figma:type="vector">
<use xlink:href="#path2_fill" transform="translate(2839.12 7348.84)" fill="#141719" style="mix-blend-mode:normal;"/>
</g>
<g id="Vector" style="mix-blend-mode:normal;" figma:type="vector">
<use xlink:href="#path3_fill" transform="translate(2850.55 7348.49)" fill="#141719" style="mix-blend-mode:normal;"/>
</g>
<g id="Vector" style="mix-blend-mode:normal;" figma:type="vector">
<use xlink:href="#path4_fill" transform="translate(2858.77 7345.26)" fill="#141719" style="mix-blend-mode:normal;"/>
</g>
</g>
<g id="Vector" style="mix-blend-mode:normal;" figma:type="vector">
<use xlink:href="#path5_fill" transform="translate(2819 7340.65)" fill="#141719" style="mix-blend-mode:normal;"/>
</g>
<g id="Vector" style="mix-blend-mode:normal;" figma:type="vector">
<use xlink:href="#path6_fill" transform="translate(2835.05 7333.91)" fill="#FFC107" style="mix-blend-mode:normal;"/>
</g>
</g>
</g>
<defs>
<path id="path0_fill" d="M 6.69486 5.90617C 6.69486 7.07457 5.75104 8.23654 4.54923 8.16593C 3.36001 8.09531 2.66158 7.05531 2.66158 5.90617L 2.66158 0L -7.68086e-07 0L -7.68086e-07 5.90617C -7.68086e-07 6.72148 0.151013 7.53679 0.497082 8.27506C 1.10742 9.57827 2.29664 10.4963 3.68092 10.7852C 4.44227 10.9393 5.20362 10.9136 5.9398 10.6504C 6.65082 10.3936 7.28003 9.95704 7.83374 9.44346L 8.71465 10.6889L 9.36274 10.6889L 9.36274 0L 6.69486 0L 6.69486 5.90617Z"/>
<path id="path1_fill" d="M 9.22431 6.1437C 8.72723 4.84691 7.43734 4.0958 6.1034 4.0958L 3.32855 4.0958C 2.47282 4.0958 2.46653 2.71556 3.32855 2.71556L 8.73982 2.71556L 8.73982 -1.95915e-07L 3.32855 -1.95915e-07C 2.54833 -1.95915e-07 1.78068 0.276049 1.18293 0.78963C 0.119553 1.70123 -0.276855 3.26765 0.213934 4.59654C 0.704722 5.90617 1.95057 6.80494 3.32855 6.80494L 6.1034 6.80494C 6.4243 6.80494 6.77037 6.8884 6.77037 7.27358C 6.77037 7.64593 6.46834 7.95408 6.1034 7.95408L -1.53617e-06 7.95408L -1.53617e-06 10.6761L 6.1034 10.6761C 6.88363 10.6761 7.64498 10.3936 8.24273 9.88C 9.26836 8.98766 9.72139 7.45333 9.22431 6.1437Z"/>
<path id="path2_fill" d="M 11.1938 5.72642C 11.1938 6.74716 10.7344 7.7358 9.9542 8.37778C 9.1551 9.03901 8.08543 9.28938 7.07868 9.05185C 6.52497 8.92346 6.01531 8.65383 5.58744 8.26222C 4.83238 8.96197 3.78788 9.25728 2.78743 9.09037C 1.80585 8.92346 0.924947 8.2879 0.434159 7.40198C 0.151011 6.88839 -3.84043e-07 6.31062 -3.84043e-07 5.72L -3.84043e-07 3.91831e-07L 2.2463 3.91831e-07L 2.2463 5.72C 2.2463 6.34914 2.76855 6.86913 3.38518 6.84988C 3.98294 6.83704 4.48002 6.32988 4.48002 5.72L 4.48002 3.91831e-07L 6.71374 3.91831e-07L 6.71374 5.72C 6.71374 6.34914 7.24857 6.86913 7.85891 6.84988C 8.45037 6.83704 8.95375 6.32988 8.95375 5.72L 8.95375 3.91831e-07L 11.1875 3.91831e-07L 11.1875 5.72642L 11.1938 5.72642Z"/>
<path id="path3_fill" d="M 3.97952 7.11882C 4.97368 7.43981 6.11886 6.80426 6.52785 5.86055L 8.17011 7.54895C 7.26403 8.865 5.72875 9.58401 4.162 9.47487C 2.69592 9.37216 1.35569 8.51191 0.6258 7.2087C -0.116675 5.87981 -0.198475 4.15932 0.380404 2.75339C 0.952991 1.37314 2.15479 0.365243 3.60199 0.0827739C 5.34492 -0.257473 7.16336 0.467959 8.18269 1.95092L 3.97952 7.11882ZM 5.13099 2.40031C 4.26896 2.07932 3.20559 2.4966 2.7085 3.25413C 2.45053 3.64574 2.31839 4.10154 2.29322 4.57018C 2.27435 5.00672 2.29951 5.54598 2.51974 5.93759L 5.13099 2.40031Z"/>
<path id="path4_fill" d="M 8.9915 7.98617C 8.9915 9.92494 7.93442 11.7353 6.12228 12.4286C 4.3353 13.1156 2.22743 12.5699 1.01933 11.0484C 0.333484 10.1817 -1.53617e-06 9.09037 -1.53617e-06 7.98617L -1.53617e-06 1.95915e-07L 2.2526 1.95915e-07L 2.2526 4.1921C 3.07687 3.12 4.71283 3.0558 5.88947 3.44741C 7.05352 3.83259 7.99734 4.70568 8.52588 5.82914C 8.84678 6.50321 8.9915 7.23506 8.9915 7.98617ZM 6.73261 7.98617C 6.73261 7.01679 6.20407 6.08593 5.31059 5.70716C 4.39193 5.32198 3.3726 5.66864 2.78114 6.45827C 2.18338 7.25432 2.10158 8.37136 2.57979 9.24444C 3.03911 10.0919 4.00182 10.5798 4.94564 10.3743C 6.02789 10.1432 6.73261 9.08395 6.73261 7.98617Z"/>
<path id="path5_fill" d="M 9.43825 0C 4.22833 0 2.40027e-08 4.31407 2.40027e-08 9.62963C 2.40027e-08 14.9452 4.22833 19.2593 9.43825 19.2593C 14.6482 19.2593 18.8765 14.9452 18.8765 9.62963C 18.8765 4.31407 14.6544 0 9.43825 0ZM 11.3259 12.5185C 8.72094 12.5185 6.60677 10.3615 6.60677 7.7037C 6.60677 5.04593 8.72094 2.88889 11.3259 2.88889C 13.9309 2.88889 16.045 5.04593 16.045 7.7037C 16.045 10.3615 13.9371 12.5185 11.3259 12.5185Z"/>
<path id="path6_fill" d="M 4.71912 9.62963C 7.32542 9.62963 9.43825 7.47396 9.43825 4.81482C 9.43825 2.15567 7.32542 0 4.71912 0C 2.11282 0 0 2.15567 0 4.81482C 0 7.47396 2.11282 9.62963 4.71912 9.62963Z"/>
</defs>
</svg>
