<svg id="Слой_1" data-name="Слой 1" xmlns="http://www.w3.org/2000/svg" viewBox="0 0 645.65 212.45"><title>Logo_CoTea2</title><path d="M188.67,316.77c0,1.16-2.32,3.57-6.94,7.2a65.08,65.08,0,0,1-41.22,14.4q-26.06,0-44.82-19.13T77,273.54Q77,246.71,95.7,228t45.58-18.74q28.06,0,45.21,18.62a15.59,15.59,0,0,1,2.24,2.72,3.13,3.13,0,0,1-1.5,1.5,6.59,6.59,0,0,1-1.73-1q-18.88-18.88-44.22-18.88-25.6,0-43.46,17.89T79.94,273.54q0,25.6,17.74,43.71T141,335.4a61,61,0,0,0,24.83-5.47A58.65,58.65,0,0,0,185.73,316l1.5-1c1,0,1.5.57,1.5,1.73Zm136.83-43.2q0,27.09-18.62,45.95T261.18,338.4q-27.09,0-45.95-18.88t-18.88-45.69q0-26.83,18.88-45.69t45.69-18.88q26.57,0,45.58,18.74T325.5,273.57Zm-3,0q0-25.34-18.14-43.34t-43.46-18q-25.81,0-43.71,17.89t-17.89,43.71q0,25.34,18.14,43.46t43.46,18.14a59.44,59.44,0,0,0,43.6-18q18-18,18-43.82Z" transform="translate(-74.96 -140.62)" style="fill:#663418;stroke:#663418;stroke-width:4px"/><path d="M414.2,213.7c0,1-.57,1.5-1.73,1.5H362.3V333.67c0,1.16-.51,1.73-1.5,1.73a1.52,1.52,0,0,1-1.73-1.73V215.21H341.91c-1.33,0-2-.51-2-1.5,0-1.16.65-1.73,2-1.73h17.15V191.85a1.52,1.52,0,0,1,1.73-1.73c1,0,1.5.57,1.5,1.73V212h50.17A1.52,1.52,0,0,1,414.2,213.7ZM552,272.07c0,1.64-1,2.49-3,2.49H447c-1.16,0-1.73-.51-1.73-1.5s.57-1.5,1.73-1.5H549.07a61.3,61.3,0,0,0-61.34-59.36q-25.34,0-43.46,18t-18.14,43.34q0,25.34,18.14,43.6t43.2,18.26q22.11,0,40.48-14.91a6.25,6.25,0,0,1,1.73-1c1-.17,1.5.26,1.5,1.25,0,.82-1.81,2.58-5.47,5.22a62.93,62.93,0,0,1-38.24,12.42q-26.57,0-45.44-19a62.66,62.66,0,0,1-18.88-45.81q0-26.83,18.88-45.58t45.69-18.74q25.81,0,45.07,18.51T552,272.1Z" transform="translate(-74.96 -140.62)" style="fill:#fff;stroke:#d2a637;stroke-width:4px"/><path d="M407.91,181.36q0,.47-1.87,2a17.59,17.59,0,0,1-11.17,3.91A16.36,16.36,0,0,1,382.73,182a17.09,17.09,0,0,1-5.07-12.36,17.32,17.32,0,0,1,17.4-17.4q7.61,0,12.25,5a3.23,3.23,0,0,1,.6.74.87.87,0,0,1-.4.4,4.16,4.16,0,0,1-.48-.26,16.4,16.4,0,0,0-12-5.1,16.55,16.55,0,0,0-16.61,16.61,16.26,16.26,0,0,0,4.82,11.82,15.84,15.84,0,0,0,11.74,4.9,16.44,16.44,0,0,0,6.72-1.47,15.88,15.88,0,0,0,5.39-3.77l.4-.26c.26,0,.4.17.4.48Zm37-11.71a17,17,0,0,1-5,12.44,16.73,16.73,0,0,1-12.36,5.1,17.46,17.46,0,1,1,12.25-29.85,16.67,16.67,0,0,1,5.13,12.33Zm-.79,0a16.69,16.69,0,1,0-4.9,11.85,16,16,0,0,0,4.9-11.85Zm23.19-.14c0,.23-.17.34-.48.34H450.2v16.07c0,.31-.14.48-.4.48s-.4-.17-.4-.48V160.3q0-8.46,4.37-13.27t12.78-5.41h.4a.36.36,0,0,1,.4.4c0,.23-.17.37-.54.4-5.07.68-8.84,2.1-11.31,4.31a14.46,14.46,0,0,0-4.37,6.52,28,28,0,0,0-.94,7.94v7.94h16.67C467.18,169.11,467.35,169.26,467.35,169.51Zm37.25-.26c0,.45-.26.68-.79.68H476.16c-.31,0-.48-.14-.48-.4s.17-.4.48-.4H503.8a16.64,16.64,0,0,0-33.28.54,16.19,16.19,0,0,0,4.9,11.79,15.92,15.92,0,0,0,11.71,4.93,17,17,0,0,0,11-4,1.14,1.14,0,0,1,.48-.26c.26-.06.4.06.4.34s-.48.71-1.47,1.42a17.07,17.07,0,0,1-10.35,3.37,16.7,16.7,0,0,1-12.3-5.13,17,17,0,0,1-5.1-12.42,16.71,16.71,0,0,1,5.1-12.33,17.49,17.49,0,0,1,24.58-.06,16,16,0,0,1,5.22,12Zm37.53,0c0,.45-.26.68-.79.68H513.69c-.31,0-.48-.14-.48-.4s.17-.4.48-.4h27.64a16.64,16.64,0,0,0-33.28.54,16.19,16.19,0,0,0,4.9,11.79,15.92,15.92,0,0,0,11.71,4.93,17,17,0,0,0,11-4,1.14,1.14,0,0,1,.48-.26c.26-.06.4.06.4.34s-.48.71-1.47,1.42a17.07,17.07,0,0,1-10.35,3.37,16.7,16.7,0,0,1-12.3-5.13,17,17,0,0,1-5.1-12.42,16.71,16.71,0,0,1,5.1-12.33,17.49,17.49,0,0,1,24.58-.06,16,16,0,0,1,5.22,12Zm47.34,17a.36.36,0,0,1-.4.4q-.21,0-6.46-6.8c-3.49,2.86-5.5,4.45-6,4.76a12.54,12.54,0,0,1-7.06,2.55,9.32,9.32,0,0,1-7-3,10.05,10.05,0,0,1-2.86-7.11,10.3,10.3,0,0,1,3-7q.89-.89,6-5.1c-1.84-1.93-2.86-3.06-3.09-3.37a7.06,7.06,0,0,1-1.56-4.17,4.37,4.37,0,0,1,1.81-3.63,6.12,6.12,0,0,1,3.91-1.28,5.65,5.65,0,0,1,4,1.47,4.89,4.89,0,0,1,1.62,3.77,6.3,6.3,0,0,1-1.87,4.22c-.26.26-1.47,1.3-3.63,3.09l12.7,13.72c2-1.7,4.08-3.4,6.32-5.1a.36.36,0,0,1,.4.4c0,.14-2.07,1.9-6.18,5.3,4.17,4.48,6.26,6.77,6.26,6.86Zm-14.8-28.43a4.29,4.29,0,0,0-1.33-3.26,4.81,4.81,0,0,0-3.37-1.25,5.51,5.51,0,0,0-3.37,1.08,3.63,3.63,0,0,0-1.62,3,6.47,6.47,0,0,0,1.56,3.91q.13.21,2.89,3.15c2.1-1.76,3.23-2.69,3.37-2.83A5.67,5.67,0,0,0,574.67,157.83Zm7.4,21.51-12.78-13.78q-5.19,4.25-5.78,4.85a9.6,9.6,0,0,0-2.95,6.66,9.17,9.17,0,0,0,2.64,6.55,8.4,8.4,0,0,0,6.38,2.78,12.27,12.27,0,0,0,6.8-2.55c.45-.26,2.35-1.76,5.73-4.51Zm45.13-25.88c0,.26-.17.4-.48.4H613.13v32.06c0,.31-.14.48-.4.48a.43.43,0,0,1-.48-.48V153.86h-4.65c-.37,0-.54-.14-.54-.4s.17-.48.54-.48h4.65v-5.44a.43.43,0,0,1,.48-.48c.26,0,.4.17.4.48V153h13.58A.43.43,0,0,1,627.19,153.47Zm37.33,15.79c0,.45-.26.68-.79.68H636.09c-.31,0-.48-.14-.48-.4s.17-.4.48-.4h27.64a16.64,16.64,0,0,0-33.28.54,16.19,16.19,0,0,0,4.9,11.79,15.92,15.92,0,0,0,11.71,4.93,17,17,0,0,0,11-4,1.14,1.14,0,0,1,.48-.26c.26-.06.4.06.4.34s-.48.71-1.47,1.42a17.07,17.07,0,0,1-10.35,3.37,16.7,16.7,0,0,1-12.3-5.13,17,17,0,0,1-5.1-12.42,16.71,16.71,0,0,1,5.1-12.33,17.49,17.49,0,0,1,24.58-.06,16,16,0,0,1,5.22,12Zm38.47.4a17,17,0,0,1-5.24,12.5c0-.14,0,.34.06,1.42a10.09,10.09,0,0,1,0,1.87c-.09.62-.26.94-.48.94s-.37-.26-.4-.79a11.68,11.68,0,0,1-.06-1.56c.06-.91.06-1.28.06-1.13a17.45,17.45,0,0,1-23.81-.79,17.48,17.48,0,0,1,24.69-24.75,16.67,16.67,0,0,1,5.13,12.33Zm-.79,0a16.66,16.66,0,1,0-16.67,16.72A16.43,16.43,0,0,0,697,181.81V169.91c0-.37.14-.54.4-.54s.4.17.4.54V181a16.17,16.17,0,0,0,4.45-11.37Z" transform="translate(-74.96 -140.62)" style="fill:#80a23b;stroke:#80a23b;stroke-width:2px"/><circle cx="579.66" cy="146.87" r="65.58" style="fill:#efefef"/><circle cx="568.16" cy="135.37" r="65.58" style="fill:#993317"/><path d="M589.55,288A65.56,65.56,0,0,1,695.1,236a65.57,65.57,0,1,0-91.94,91.94A65.27,65.27,0,0,1,589.55,288Z" transform="translate(-74.96 -140.62)" style="fill:#070707;opacity:0.18000000715255737;isolation:isolate"/><path d="M719.63,344.52,715,349.11a3.56,3.56,0,0,1-5,0l-18.28-18.28,9.55-9.55,18.28,18.28a3.56,3.56,0,0,1,0,5Z" transform="translate(-74.96 -140.62)" style="fill:#efefef"/><path d="M643.12,341.57A66.84,66.84,0,1,1,710,274.73,66.84,66.84,0,0,1,643.12,341.57Zm0-130.68A63.84,63.84,0,1,0,707,274.73a63.84,63.84,0,0,0-63.84-63.84Z" transform="translate(-74.96 -140.62)" style="fill:#d2a637"/><path d="M715.24,340.13l-4.55,4.59a3.56,3.56,0,0,1-5,0l-18.28-18.28,9.55-9.55,18.25,18.29a3.56,3.56,0,0,1,0,5Z" transform="translate(-74.96 -140.62)" style="fill:#d2a637"/><path d="M687.37,298.18" transform="translate(-74.96 -140.62)" style="fill:#d2a637"/><path d="M694.82,292.06" transform="translate(-74.96 -140.62)"/></svg>